<?xml version="1.0" encoding="utf-8"?>
<!-- Generator: Adobe Illustrator 26.2.1, SVG Export Plug-In . SVG Version: 6.00 Build 0)  -->
<svg version="1.1" id="Layer_1" xmlns="http://www.w3.org/2000/svg" xmlns:xlink="http://www.w3.org/1999/xlink" x="0px" y="0px"
	 viewBox="0 0 1000 1000" style="enable-background:new 0 0 1000 1000;" xml:space="preserve">
<style type="text/css">
	.st0{fill:#58595B;}
	.st1{fill:url(#SVGID_1_);}
	.st2{opacity:0.3;fill:#F5F5DC;}
	.st3{fill:#FFFFFF;}
</style>
<g>
	<g>
		<path class="st0" d="M217.19,648.06c-3.95-2.31-7.01-5.59-9.19-9.84c-2.17-4.24-3.26-9.16-3.26-14.75v-20.65
			c0-5.59,1.09-10.51,3.26-14.75c2.17-4.24,5.24-7.53,9.19-9.86c3.95-2.33,8.53-3.49,13.74-3.49c4.31,0,8.28,0.92,11.91,2.77
			c3.62,1.85,6.65,4.46,9.08,7.84c2.43,3.38,4.08,7.3,4.94,11.75h-10.82c-0.66-2.35-1.75-4.44-3.29-6.29
			c-1.54-1.85-3.34-3.27-5.41-4.27c-2.07-1-4.21-1.5-6.42-1.5c-3.07,0-5.76,0.74-8.08,2.23c-2.31,1.48-4.11,3.56-5.38,6.24
			c-1.28,2.67-1.92,5.79-1.92,9.34v20.65c0,3.52,0.64,6.63,1.92,9.32c1.28,2.69,3.07,4.77,5.38,6.24c2.31,1.47,5,2.2,8.08,2.2
			c2.24,0,4.39-0.47,6.44-1.4c2.05-0.93,3.85-2.31,5.38-4.14c1.54-1.83,2.63-4,3.29-6.52h10.82c-0.86,4.45-2.52,8.37-4.97,11.75
			c-2.45,3.38-5.49,6-9.11,7.84c-3.62,1.85-7.58,2.77-11.85,2.77C225.73,651.53,221.14,650.37,217.19,648.06z"/>
		<path class="st0" d="M279.49,648.79c-3.31-1.83-5.84-4.5-7.58-8c-1.74-3.5-2.61-7.72-2.61-12.66v-8.75c0-4.87,0.87-9.03,2.61-12.5
			c1.74-3.47,4.27-6.11,7.58-7.92c3.31-1.81,7.3-2.72,11.96-2.72s8.64,0.91,11.96,2.72c3.31,1.81,5.84,4.45,7.58,7.92
			c1.74,3.47,2.61,7.64,2.61,12.5v8.9c0,4.9-0.87,9.08-2.61,12.55c-1.74,3.47-4.27,6.12-7.58,7.95s-7.3,2.74-11.96,2.74
			S282.81,650.62,279.49,648.79z M300.02,638.02c2.02-2.31,3.03-5.56,3.03-9.73v-8.9c0-4.18-1.01-7.4-3.03-9.68
			c-2.02-2.28-4.87-3.42-8.57-3.42c-3.69,0-6.55,1.14-8.57,3.42c-2.02,2.28-3.03,5.5-3.03,9.68v8.9c0,4.18,1.01,7.42,3.03,9.73
			c2.02,2.31,4.87,3.47,8.57,3.47C295.14,641.49,298,640.33,300.02,638.02z"/>
		<path class="st0" d="M328.62,597.02h10.56v53.73h-10.56V597.02z M361.23,618.19c0-3.79-0.98-6.73-2.95-8.8
			c-1.97-2.07-4.73-3.11-8.28-3.11c-3.45,0-6.12,0.92-8,2.74c-1.88,1.83-2.82,4.4-2.82,7.71l-1.09-10.35
			c1.66-3.24,3.82-5.75,6.5-7.51c2.67-1.76,5.63-2.64,8.88-2.64c5.83,0,10.34,1.91,13.54,5.72c3.19,3.81,4.79,9.21,4.79,16.18v32.61
			h-10.56V618.19z"/>
		<path class="st0" d="M419.46,597.02h11.03l-20.19,53.73h-7.97l-20.19-53.73h11.03l13.15,38.36L419.46,597.02z"/>
		<path class="st0" d="M449.49,648.79c-3.31-1.83-5.84-4.5-7.58-8c-1.74-3.5-2.61-7.72-2.61-12.66v-8.75c0-4.87,0.87-9.03,2.61-12.5
			c1.74-3.47,4.27-6.11,7.58-7.92c3.31-1.81,7.3-2.72,11.96-2.72s8.64,0.91,11.96,2.72c3.31,1.81,5.84,4.45,7.58,7.92
			c1.74,3.47,2.61,7.64,2.61,12.5v8.9c0,4.9-0.87,9.08-2.61,12.55c-1.74,3.47-4.27,6.12-7.58,7.95c-3.31,1.83-7.3,2.74-11.96,2.74
			S452.8,650.62,449.49,648.79z M470.01,638.02c2.02-2.31,3.03-5.56,3.03-9.73v-8.9c0-4.18-1.01-7.4-3.03-9.68
			c-2.02-2.28-4.88-3.42-8.57-3.42c-3.69,0-6.55,1.14-8.57,3.42c-2.02,2.28-3.03,5.5-3.03,9.68v8.9c0,4.18,1.01,7.42,3.03,9.73
			c2.02,2.31,4.87,3.47,8.57,3.47C465.14,641.49,467.99,640.33,470.01,638.02z"/>
		<path class="st0" d="M528.12,575.49h10.56v75.27h-10.56V575.49z M533.55,611.52h24.07c2.28,0,4.28-0.54,6-1.61
			c1.73-1.07,3.06-2.59,4.01-4.55c0.95-1.97,1.42-4.23,1.42-6.78c0-2.59-0.47-4.87-1.42-6.83c-0.95-1.97-2.29-3.49-4.01-4.58
			c-1.73-1.09-3.73-1.63-6-1.63h-24.07v-10.04h23.71c4.49,0,8.44,0.96,11.85,2.87c3.42,1.92,6.06,4.62,7.95,8.1
			c1.88,3.49,2.82,7.52,2.82,12.11s-0.94,8.62-2.82,12.09c-1.88,3.47-4.53,6.15-7.95,8.05c-3.42,1.9-7.37,2.85-11.85,2.85h-23.71
			V611.52z"/>
		<path class="st0" d="M601.73,648.79c-3.31-1.83-5.84-4.5-7.58-8c-1.74-3.5-2.61-7.72-2.61-12.66v-8.75c0-4.87,0.87-9.03,2.61-12.5
			c1.74-3.47,4.27-6.11,7.58-7.92c3.31-1.81,7.3-2.72,11.96-2.72s8.64,0.91,11.96,2.72c3.31,1.81,5.84,4.45,7.58,7.92
			c1.74,3.47,2.61,7.64,2.61,12.5v8.9c0,4.9-0.87,9.08-2.61,12.55c-1.74,3.47-4.27,6.12-7.58,7.95c-3.31,1.83-7.3,2.74-11.96,2.74
			S605.04,650.62,601.73,648.79z M622.25,638.02c2.02-2.31,3.03-5.56,3.03-9.73v-8.9c0-4.18-1.01-7.4-3.03-9.68
			c-2.02-2.28-4.88-3.42-8.57-3.42c-3.69,0-6.55,1.14-8.57,3.42c-2.02,2.28-3.03,5.5-3.03,9.68v8.9c0,4.18,1.01,7.42,3.03,9.73
			c2.02,2.31,4.87,3.47,8.57,3.47C617.38,641.49,620.23,640.33,622.25,638.02z"/>
		<path class="st0" d="M650.85,597.02h10.56v53.73h-10.56V597.02z M676.89,607.17c-1.42-0.59-3.05-0.88-4.92-0.88
			c-3.35,0-5.94,0.92-7.79,2.77c-1.85,1.85-2.77,4.41-2.77,7.69l-1.09-10.35c1.66-3.21,3.8-5.7,6.42-7.48
			c2.62-1.78,5.52-2.67,8.7-2.67c2.45,0,4.67,0.35,6.65,1.06c1.98,0.71,3.72,1.75,5.2,3.13l-6.88,9.32
			C679.48,608.62,678.31,607.75,676.89,607.17z"/>
		<path class="st0" d="M691.96,597.02h24.23v9.52h-24.23V597.02z M700.52,647.41c-2.02-2.4-3.03-5.94-3.03-10.64v-55.39h10.56v55.49
			c0,1.31,0.26,2.32,0.78,3.03c0.52,0.71,1.28,1.06,2.28,1.06h5.07v10.04h-6.11C705.72,651.01,702.54,649.81,700.52,647.41z"/>
		<path class="st0" d="M733,647.41c-3.28-2.74-4.92-6.91-4.92-12.5c0-5.31,1.5-9.3,4.5-11.96c3-2.66,7.54-3.99,13.61-3.99h15.27
			l0.73,8.49h-15.94c-2.76,0-4.82,0.61-6.19,1.84s-2.04,3.1-2.04,5.62c0,2.73,0.91,4.75,2.72,6.06s4.56,1.97,8.26,1.97
			c4.04,0,7.05-0.43,9.03-1.29s2.98-2.21,2.98-4.04l1.09,7.56c-0.93,1.45-2.08,2.64-3.44,3.57c-1.36,0.93-2.94,1.63-4.74,2.1
			c-1.79,0.47-3.81,0.7-6.06,0.7C741.24,651.53,736.28,650.16,733,647.41z M761.01,616.69c0-3.52-0.94-6.25-2.82-8.2
			s-4.55-2.92-8-2.92c-2.14,0-4.24,0.33-6.29,0.98c-2.05,0.66-3.87,1.57-5.46,2.74l-7.71-5.28c2.04-2.45,4.72-4.36,8.05-5.72
			c3.33-1.36,7.03-2.04,11.1-2.04c4.45,0,8.26,0.79,11.44,2.36c3.17,1.57,5.59,3.85,7.25,6.83c1.66,2.99,2.49,6.58,2.49,10.79v34.53
			h-10.04V616.69z"/>
		<path class="st0" d="M797.66,636.88c0,1.31,0.28,2.32,0.85,3.03c0.57,0.71,1.37,1.06,2.41,1.06h4.97v10.04h-6.21
			c-4,0-7.1-1.24-9.29-3.73c-2.19-2.49-3.29-5.99-3.29-10.51v-61.29h10.56V636.88z"/>
	</g>
</g>
<g>
	<linearGradient id="SVGID_1_" gradientUnits="userSpaceOnUse" x1="311.3327" y1="430.9994" x2="686.3447" y2="430.9994">
		<stop  offset="0.3369" style="stop-color:#92278F"/>
		<stop  offset="0.3921" style="stop-color:#8B288F"/>
		<stop  offset="0.5986" style="stop-color:#772B90"/>
		<stop  offset="0.8026" style="stop-color:#6A2C91"/>
		<stop  offset="1" style="stop-color:#662D91"/>
	</linearGradient>
	<path class="st1" d="M584.27,320.25H413.41c-56.14,0-102.07,45.93-102.07,102.07c0,18.74,7.25,37.67,7.25,37.67
		c3.78,11.34,10.58,19.45,12.48,22.34c7.71,11.76,40.79,56.6,44.8,59.42c-0.83-5.16-2.16-12.63-4.2-21.57
		c-0.75-3.28-2.16-9.24-6.49-24.61c-5.85-20.81-5.82-19.02-6.66-22.99c-4.81-22.96,3.24-42.81,6.95-54.42
		c4.64-14.49,12.75-25.32,24.34-32.51c11.59-7.19,27.7-10.78,48.34-10.78c14.37,0,27.27,2.55,38.69,7.65
		c11.42,5.1,20.43,12.58,27.04,22.43c6.61,9.85,9.91,21.91,9.91,36.16v39.82h-63.46v-36.51c0-6.02-0.87-11.1-2.61-15.21
		c-1.74-4.11-5.51-6.17-11.3-6.17c-10.2,0-15.3,7.25-15.3,21.73v79.63h163.15c56.14,0,102.08-45.93,102.08-102.08
		S640.41,320.25,584.27,320.25z"/>
	<path class="st2" d="M365.35,418.54c0.04-0.12,0.07-0.25,0.11-0.37c4.64-14.49,12.75-25.32,24.34-32.51
		c11.59-7.19,27.7-10.78,48.34-10.78c14.37,0,27.27,2.55,38.69,7.65c11.42,5.1,20.43,12.58,27.04,22.43
		c2.77,4.13,4.93,8.68,6.54,13.59H684.3c1.18,0,1.82,0.8,1.97,1.71c-1.12-55.19-46.58-100-102.02-100H413.39
		c-54.87,0-99.97,43.89-101.98,98.29H365.35z"/>
	<g>
		<circle class="st3" cx="604.2" cy="471.82" r="9.2"/>
		<circle class="st3" cx="575.86" cy="471.82" r="9.2"/>
		<circle class="st3" cx="549.71" cy="471.82" r="9.2"/>
	</g>
</g>
</svg>
