<svg width="32" height="32" viewBox="0 0 32 32" fill="none" xmlns="http://www.w3.org/2000/svg">
<g clip-path="url(#clip0_1_2313)">
<path d="M16 2.66663C8.63996 2.66663 2.66663 8.63996 2.66663 16C2.66663 23.36 8.63996 29.3333 16 29.3333C23.36 29.3333 29.3333 23.36 29.3333 16C29.3333 8.63996 23.36 2.66663 16 2.66663ZM17.3333 25.3333H14.6666V22.6666H17.3333V25.3333ZM20.0933 15L18.8933 16.2266C17.9333 17.2 17.3333 18 17.3333 20H14.6666V19.3333C14.6666 17.8666 15.2666 16.5333 16.2266 15.56L17.88 13.88C18.3733 13.4 18.6666 12.7333 18.6666 12C18.6666 10.5333 17.4666 9.33329 16 9.33329C14.5333 9.33329 13.3333 10.5333 13.3333 12H10.6666C10.6666 9.05329 13.0533 6.66663 16 6.66663C18.9466 6.66663 21.3333 9.05329 21.3333 12C21.3333 13.1733 20.8533 14.24 20.0933 15Z" fill="#434343"/>
</g>
<defs>
<clipPath id="clip0_1_2313">
<rect width="32" height="32" fill="white"/>
</clipPath>
</defs>
</svg>
