<svg width="20" height="20" viewBox="0 0 20 20" fill="none" xmlns="http://www.w3.org/2000/svg">
<g clip-path="url(#clip0_15_313)">
<path d="M15.5875 -1.23095e-05C14.2703 -0.00469983 11.5219 -0.0484499 10.05 1.42499L9.7875 1.68749V1.69999C8.21562 3.2828 8.03281 5.64843 9.1625 7.42499L0.962499 14.925L0.949999 14.9375C0.590624 15.2969 0.212499 15.9 0.0999992 16.65C-0.0125009 17.4 0.181249 18.2937 0.949999 19.0625C1.71875 19.8312 2.6125 20.025 3.3625 19.9125C4.1125 19.8 4.71562 19.4219 5.075 19.0625H5.0875V19.05C5.0875 19.05 6.97031 16.9203 8.875 14.8C9.82812 13.739 10.7812 12.6844 11.5125 11.9C11.8781 11.5078 12.1938 11.1812 12.4125 10.9625C12.4734 10.9015 12.5047 10.8672 12.55 10.825C14.3281 11.9969 16.7188 11.8344 18.3125 10.2375L18.575 9.97499C19.2938 9.2578 19.6266 8.20936 19.8 7.18749C19.9734 6.16561 19.9719 5.15624 19.975 4.48749C19.9766 4.33436 19.9734 4.18436 19.85 4.03749C19.7266 3.89061 19.4953 3.85155 19.375 3.87499C19.1344 3.92343 19.0375 4.04999 19.0375 4.04999L19.025 4.06249C19.025 4.06249 16.7375 6.36093 16.425 6.67499C16.4125 6.6828 16.4094 6.68436 16.3875 6.68749C16.3156 6.69842 16.2031 6.71093 16.0625 6.71249C15.7828 6.71561 15.3984 6.69686 15.025 6.66249C14.6516 6.62811 14.2766 6.5703 13.9875 6.51249C13.8422 6.4828 13.7203 6.45155 13.6375 6.42499C13.6078 6.41561 13.5906 6.40936 13.575 6.39999C13.5656 6.38592 13.5578 6.37186 13.55 6.34999C13.5234 6.2703 13.5031 6.14061 13.475 5.99999C13.4187 5.71874 13.3687 5.35311 13.3375 4.98749C13.3062 4.62186 13.2891 4.25155 13.3 3.97499C13.3062 3.83593 13.3109 3.72343 13.325 3.64999C13.3328 3.61405 13.3453 3.59374 13.35 3.58749C13.6969 3.24061 15.975 0.974988 15.975 0.974988L15.9875 0.962488V0.949988C15.9875 0.949988 16.1063 0.865613 16.1625 0.637488C16.1906 0.523425 16.1812 0.30155 16.0375 0.162488C15.8938 0.0234252 15.7391 -1.23095e-05 15.5875 -1.23095e-05ZM15.0625 0.799988C14.5656 1.29686 13.0266 2.83593 12.775 3.08749C12.625 3.23749 12.6141 3.36561 12.5875 3.49999C12.5609 3.63436 12.5438 3.78593 12.5375 3.94999C12.5234 4.27655 12.5422 4.65936 12.575 5.04999C12.6078 5.44061 12.6594 5.82811 12.725 6.14999C12.7578 6.31093 12.7953 6.46093 12.8375 6.58749C12.8797 6.71405 12.9062 6.81874 13.0375 6.94999C13.1719 7.08436 13.2719 7.1078 13.4 7.14999C13.5281 7.19217 13.6734 7.22967 13.8375 7.26249C14.1656 7.32811 14.5672 7.37499 14.9625 7.41249C15.3578 7.44999 15.7406 7.47811 16.0625 7.47499C16.2234 7.47342 16.3734 7.45624 16.5 7.43749C16.6266 7.41874 16.7344 7.45311 16.9125 7.27499C17.1094 7.07655 18.6797 5.48593 19.1875 4.97499C19.1781 5.59842 19.1797 6.29686 19.05 7.06249C18.8906 8.00624 18.5688 8.90624 18.0375 9.43749L17.775 9.69999C16.2297 11.2469 13.8516 11.2062 12.3375 9.68749L10.3375 7.68749C8.825 6.16717 8.78594 3.78592 10.325 2.23749L10.5875 1.96249C11.5828 0.965613 13.6844 0.823425 15.0625 0.799988ZM9.6 7.99999C9.66563 8.07499 9.72813 8.15311 9.8 8.22499L11.8 10.225C11.8547 10.2797 11.9172 10.3234 11.975 10.375C11.9469 10.4031 11.9313 10.4187 11.9 10.45C11.6687 10.6797 11.3562 11.0047 10.9875 11.4C10.25 12.1906 9.29063 13.25 8.3375 14.3125C6.43594 16.4297 4.57344 18.55 4.5625 18.5625L4.55 18.575C4.30625 18.814 3.80625 19.1156 3.25 19.2C2.6875 19.2844 2.08281 19.1828 1.4625 18.5625C0.842187 17.9422 0.728124 17.3265 0.812499 16.7625C0.896874 16.2062 1.21094 15.7062 1.45 15.4625L1.4625 15.45L9.6 7.99999Z" fill="#90A0B7"/>
</g>
<defs>
<clipPath id="clip0_15_313">
<rect width="20" height="20" fill="white"/>
</clipPath>
</defs>
</svg>
