<svg width="32" height="32" viewBox="0 0 32 32" fill="none" xmlns="http://www.w3.org/2000/svg">
<g clip-path="url(#clip0_15_374)">
<g clip-path="url(#clip1_15_374)">
<mask id="path-1-inside-1_15_374" fill="white">
<path d="M15.5875 5.99999C14.2703 5.9953 11.5219 5.95155 10.05 7.42499L9.7875 7.68749V7.69999C8.21562 9.2828 8.03281 11.6484 9.1625 13.425L0.962499 20.925L0.949999 20.9375C0.590624 21.2969 0.212499 21.9 0.0999992 22.65C-0.0125009 23.4 0.181249 24.2937 0.949999 25.0625C1.71875 25.8312 2.6125 26.025 3.3625 25.9125C4.1125 25.8 4.71562 25.4219 5.075 25.0625H5.0875V25.05C5.0875 25.05 6.97031 22.9203 8.875 20.8C9.82812 19.739 10.7812 18.6844 11.5125 17.9C11.8781 17.5078 12.1938 17.1812 12.4125 16.9625C12.4734 16.9015 12.5047 16.8672 12.55 16.825C14.3281 17.9969 16.7188 17.8344 18.3125 16.2375L18.575 15.975C19.2938 15.2578 19.6266 14.2094 19.8 13.1875C19.9734 12.1656 19.9719 11.1562 19.975 10.4875C19.9766 10.3344 19.9734 10.1844 19.85 10.0375C19.7266 9.89061 19.4953 9.85155 19.375 9.87499C19.1344 9.92343 19.0375 10.05 19.0375 10.05L19.025 10.0625C19.025 10.0625 16.7375 12.3609 16.425 12.675C16.4125 12.6828 16.4094 12.6844 16.3875 12.6875C16.3156 12.6984 16.2031 12.7109 16.0625 12.7125C15.7828 12.7156 15.3984 12.6969 15.025 12.6625C14.6516 12.6281 14.2766 12.5703 13.9875 12.5125C13.8422 12.4828 13.7203 12.4516 13.6375 12.425C13.6078 12.4156 13.5906 12.4094 13.575 12.4C13.5656 12.3859 13.5578 12.3719 13.55 12.35C13.5234 12.2703 13.5031 12.1406 13.475 12C13.4187 11.7187 13.3687 11.3531 13.3375 10.9875C13.3062 10.6219 13.2891 10.2515 13.3 9.97499C13.3062 9.83593 13.3109 9.72343 13.325 9.64999C13.3328 9.61405 13.3453 9.59374 13.35 9.58749C13.6969 9.24061 15.975 6.97499 15.975 6.97499L15.9875 6.96249V6.94999C15.9875 6.94999 16.1063 6.86561 16.1625 6.63749C16.1906 6.52343 16.1812 6.30155 16.0375 6.16249C15.8938 6.02343 15.7391 5.99999 15.5875 5.99999ZM15.0625 6.79999C14.5656 7.29686 13.0266 8.83593 12.775 9.08749C12.625 9.23749 12.6141 9.36561 12.5875 9.49999C12.5609 9.63436 12.5438 9.78593 12.5375 9.94999C12.5234 10.2765 12.5422 10.6594 12.575 11.05C12.6078 11.4406 12.6594 11.8281 12.725 12.15C12.7578 12.3109 12.7953 12.4609 12.8375 12.5875C12.8797 12.714 12.9062 12.8187 13.0375 12.95C13.1719 13.0844 13.2719 13.1078 13.4 13.15C13.5281 13.1922 13.6734 13.2297 13.8375 13.2625C14.1656 13.3281 14.5672 13.375 14.9625 13.4125C15.3578 13.45 15.7406 13.4781 16.0625 13.475C16.2234 13.4734 16.3734 13.4562 16.5 13.4375C16.6266 13.4187 16.7344 13.4531 16.9125 13.275C17.1094 13.0766 18.6797 11.4859 19.1875 10.975C19.1781 11.5984 19.1797 12.2969 19.05 13.0625C18.8906 14.0062 18.5688 14.9062 18.0375 15.4375L17.775 15.7C16.2297 17.2469 13.8516 17.2062 12.3375 15.6875L10.3375 13.6875C8.825 12.1672 8.78594 9.78592 10.325 8.23749L10.5875 7.96249C11.5828 6.96561 13.6844 6.82343 15.0625 6.79999ZM9.6 14C9.66563 14.075 9.72813 14.1531 9.8 14.225L11.8 16.225C11.8547 16.2797 11.9172 16.3234 11.975 16.375C11.9469 16.4031 11.9313 16.4187 11.9 16.45C11.6687 16.6797 11.3562 17.0047 10.9875 17.4C10.25 18.1906 9.29063 19.25 8.3375 20.3125C6.43594 22.4297 4.57344 24.55 4.5625 24.5625L4.55 24.575C4.30625 24.814 3.80625 25.1156 3.25 25.2C2.6875 25.2844 2.08281 25.1828 1.4625 24.5625C0.842187 23.9422 0.728124 23.3265 0.812499 22.7625C0.896874 22.2062 1.21094 21.7062 1.45 21.4625L1.4625 21.45L9.6 14Z"/>
</mask>
<path d="M15.5875 5.99999L15.5804 7.99999H15.5875V5.99999ZM10.05 7.42499L11.4642 8.8392L11.465 8.83845L10.05 7.42499ZM9.7875 7.68749L8.37329 6.27327L7.7875 6.85906V7.68749H9.7875ZM9.7875 7.69999L11.2066 9.10929L11.7875 8.52436V7.69999H9.7875ZM9.1625 13.425L10.5123 14.9008L11.7508 13.7681L10.8502 12.3518L9.1625 13.425ZM0.962499 20.925L-0.387319 19.4492L-0.420203 19.4793L-0.451714 19.5108L0.962499 20.925ZM0.949999 20.9375L-0.464214 19.5233L-0.464215 19.5233L0.949999 20.9375ZM5.075 25.0625V23.0625H4.24657L3.66079 23.6483L5.075 25.0625ZM5.0875 25.0625V27.0625H7.0875V25.0625H5.0875ZM5.0875 25.05L3.58911 23.7253L3.0875 24.2927V25.05H5.0875ZM8.875 20.8L7.38721 19.4634L7.38716 19.4635L8.875 20.8ZM11.5125 17.9L10.0496 16.5362L11.5125 17.9ZM12.4125 16.9625L10.9983 15.5483L12.4125 16.9625ZM12.55 16.825L13.6506 15.155L12.3378 14.2899L11.1872 15.3612L12.55 16.825ZM18.3125 16.2375L16.8983 14.8233L16.8969 14.8247L18.3125 16.2375ZM18.575 15.975L17.1623 14.5592L17.1608 14.5608L18.575 15.975ZM19.8 13.1875L17.8282 12.8528L19.8 13.1875ZM19.975 10.4875L17.9751 10.4671L17.975 10.4781L19.975 10.4875ZM19.85 10.0375L21.3811 8.75072L21.3811 8.75072L19.85 10.0375ZM19.375 9.87499L18.9926 7.91185L18.9803 7.91432L19.375 9.87499ZM19.0375 10.05L20.4517 11.4642L20.5453 11.3707L20.6257 11.2656L19.0375 10.05ZM19.025 10.0625L17.6108 8.64827L17.6074 8.65165L19.025 10.0625ZM16.425 12.675L17.485 14.371L17.6803 14.2489L17.8427 14.0857L16.425 12.675ZM16.3875 12.6875L16.1047 10.7076L16.0956 10.7089L16.0866 10.7103L16.3875 12.6875ZM16.0625 12.7125L16.0403 10.7126L16.0402 10.7126L16.0625 12.7125ZM15.025 12.6625L15.2083 10.6709H15.2083L15.025 12.6625ZM13.9875 12.5125L13.5872 14.472L13.5953 14.4736L13.9875 12.5125ZM13.6375 12.425L14.2484 10.5205L14.2397 10.5178L13.6375 12.425ZM13.575 12.4L11.9109 13.5094L12.1604 13.8836L12.546 14.115L13.575 12.4ZM13.55 12.35L11.6526 12.9824L11.6594 13.0026L11.6665 13.0226L13.55 12.35ZM13.475 12L11.5138 12.3922V12.3922L13.475 12ZM13.3375 10.9875L15.3302 10.8172L13.3375 10.9875ZM13.3 9.97499L11.302 9.88519L11.3016 9.89595L13.3 9.97499ZM13.325 9.64999L11.3706 9.22513L11.3654 9.24943L11.3607 9.27385L13.325 9.64999ZM13.35 9.58749L11.9358 8.17327L11.8353 8.27377L11.75 8.38747L13.35 9.58749ZM15.975 6.97499L17.3853 8.39309L17.3892 8.3892L15.975 6.97499ZM15.9875 6.96249L17.4017 8.3767L17.9875 7.79091V6.96249H15.9875ZM15.9875 6.94999L14.8291 5.31963L13.9875 5.91759V6.94999H15.9875ZM16.1625 6.63749L14.2207 6.15867L14.2207 6.15868L16.1625 6.63749ZM16.0375 6.16249L14.6469 7.59994L14.6469 7.59994L16.0375 6.16249ZM15.0625 6.79999L16.4767 8.2142L19.9748 4.71616L15.0285 4.80028L15.0625 6.79999ZM12.5875 9.49999L10.6255 9.11214V9.11215L12.5875 9.49999ZM12.5375 9.94999L14.5357 10.036L14.5361 10.0261L12.5375 9.94999ZM12.575 11.05L14.568 10.8826L12.575 11.05ZM12.725 12.15L14.6847 11.7504V11.7504L12.725 12.15ZM13.4 13.15L12.7745 15.0497L12.7745 15.0497L13.4 13.15ZM13.8375 13.2625L14.2297 11.3013L14.2297 11.3013L13.8375 13.2625ZM16.0625 13.475L16.0431 11.4751H16.0431L16.0625 13.475ZM16.9125 13.275L18.3267 14.6892L18.3323 14.6836L16.9125 13.275ZM19.1875 10.975L21.1873 11.0051L21.2618 6.05081L17.769 9.56512L19.1875 10.975ZM19.05 13.0625L17.0781 12.7285L17.0779 12.7295L19.05 13.0625ZM17.775 15.7L16.3608 14.2858L16.3601 14.2865L17.775 15.7ZM12.3375 15.6875L13.7539 14.2755L13.7517 14.2733L12.3375 15.6875ZM10.3375 13.6875L8.91964 15.0981L8.92329 15.1017L10.3375 13.6875ZM10.325 8.23749L11.7435 9.6474L11.7578 9.63306L11.7717 9.61844L10.325 8.23749ZM10.5875 7.96249L9.17218 6.54938L9.1563 6.56528L9.14079 6.58154L10.5875 7.96249ZM9.6 14L11.1052 12.683L9.75818 11.1436L8.24947 12.5248L9.6 14ZM11.8 16.225L10.3858 17.6392L11.8 16.225ZM11.975 16.375L13.3892 17.7892L14.8865 16.2919L13.3062 14.8824L11.975 16.375ZM11.9 16.45L13.3094 17.869L13.3142 17.8642L11.9 16.45ZM10.9875 17.4L9.52501 16.0358V16.0358L10.9875 17.4ZM8.3375 20.3125L9.82545 21.6489L9.82626 21.648L8.3375 20.3125ZM4.5625 24.5625L5.97671 25.9767L6.0238 25.9296L6.06765 25.8795L4.5625 24.5625ZM4.55 24.575L5.95042 26.0029L5.95735 25.9961L5.96421 25.9892L4.55 24.575ZM3.25 25.2L3.54668 27.1779L3.54994 27.1774L3.25 25.2ZM0.812499 22.7625L-1.16489 22.4625L-1.16549 22.4666L0.812499 22.7625ZM1.45 21.4625L0.0357858 20.0483L0.0289207 20.0551L0.0221226 20.0621L1.45 21.4625ZM1.4625 21.45L0.111974 19.9748L0.0794582 20.0046L0.0482858 20.0358L1.4625 21.45ZM15.5946 4C14.9623 3.99775 13.7775 3.98044 12.5479 4.18541C11.3464 4.38569 9.80317 4.84215 8.63504 6.01152L11.465 8.83845C11.7687 8.53438 12.3356 8.276 13.2056 8.13097C14.0475 7.99063 14.8955 7.99754 15.5804 7.99997L15.5946 4ZM8.63579 6.01077L8.37329 6.27327L11.2017 9.1017L11.4642 8.8392L8.63579 6.01077ZM7.7875 7.68749V7.69999H11.7875V7.68749H7.7875ZM8.36839 6.29069C6.11823 8.5565 5.85886 11.9569 7.47481 14.4982L10.8502 12.3518C10.2068 11.34 10.313 10.0091 11.2066 9.10929L8.36839 6.29069ZM7.81268 11.9492L-0.387319 19.4492L2.31232 22.4008L10.5123 14.9008L7.81268 11.9492ZM-0.451714 19.5108L-0.464214 19.5233L2.36421 22.3517L2.37671 22.3392L-0.451714 19.5108ZM-0.464215 19.5233C-1.08424 20.1433 -1.69362 21.1249 -1.87787 22.3533L2.07787 22.9467C2.09707 22.8187 2.14029 22.6956 2.1993 22.5843C2.26009 22.4697 2.32583 22.3901 2.36421 22.3517L-0.464215 19.5233ZM-1.87787 22.3533C-2.0789 23.6935 -1.70758 25.2333 -0.464214 26.4767L2.36421 23.6483C2.20067 23.4847 2.13283 23.3456 2.10175 23.2471C2.06881 23.1428 2.06379 23.0405 2.07787 22.9467L-1.87787 22.3533ZM-0.464214 26.4767C0.779152 27.7201 2.31903 28.0914 3.65918 27.8904L3.06582 23.9346C2.97196 23.9487 2.86973 23.9437 2.76537 23.9107C2.66691 23.8797 2.52775 23.8118 2.36421 23.6483L-0.464214 26.4767ZM3.65918 27.8904C4.88754 27.7061 5.86919 27.0967 6.48921 26.4767L3.66079 23.6483C3.62241 23.6867 3.54276 23.7524 3.42814 23.8132C3.31688 23.8722 3.19377 23.9154 3.06582 23.9346L3.65918 27.8904ZM5.075 27.0625H5.0875V23.0625H5.075V27.0625ZM7.0875 25.0625V25.05H3.0875V25.0625H7.0875ZM5.0875 25.05C6.58589 26.3747 6.58589 26.3747 6.5859 26.3747C6.58592 26.3747 6.58593 26.3746 6.58596 26.3746C6.58601 26.3746 6.58609 26.3745 6.58619 26.3743C6.58641 26.3741 6.58674 26.3737 6.58718 26.3732C6.58806 26.3722 6.5894 26.3707 6.59118 26.3687C6.59475 26.3647 6.60009 26.3586 6.60716 26.3506C6.6213 26.3346 6.64233 26.3109 6.66981 26.2798C6.72477 26.2177 6.80549 26.1266 6.90834 26.0105C7.11405 25.7783 7.40825 25.4466 7.76187 25.0488C8.46935 24.2528 9.41369 23.1931 10.3628 22.1365L7.38716 19.4635C6.43162 20.5272 5.48222 21.5925 4.77211 22.3914C4.41695 22.791 4.1214 23.1243 3.91456 23.3577C3.81114 23.4744 3.72988 23.5662 3.67443 23.6288C3.64671 23.6602 3.62543 23.6842 3.61106 23.7005C3.60387 23.7086 3.59841 23.7148 3.59473 23.7189C3.5929 23.721 3.5915 23.7226 3.59056 23.7236C3.59009 23.7242 3.58974 23.7246 3.58949 23.7249C3.58937 23.725 3.58928 23.7251 3.58921 23.7252C3.58918 23.7252 3.58916 23.7252 3.58914 23.7253C3.58912 23.7253 3.58911 23.7253 5.0875 25.05ZM10.3628 22.1366C11.3163 21.0753 12.2582 20.0331 12.9754 19.2638L10.0496 16.5362C9.30433 17.3356 8.34 18.4028 7.38721 19.4634L10.3628 22.1366ZM12.9754 19.2638C13.329 18.8845 13.6281 18.5754 13.8267 18.3767L10.9983 15.5483C10.7594 15.7871 10.4273 16.1311 10.0496 16.5362L12.9754 19.2638ZM13.8267 18.3767C13.8481 18.3553 13.8664 18.3367 13.8815 18.3214C13.8888 18.3139 13.8956 18.3069 13.901 18.3015C13.9067 18.2956 13.9107 18.2915 13.9142 18.2879C13.9272 18.2746 13.9223 18.2799 13.9128 18.2888L11.1872 15.3612C11.1324 15.4122 11.0892 15.4558 11.06 15.4855C11.0275 15.5186 11.0202 15.5263 10.9983 15.5483L13.8267 18.3767ZM11.4494 18.4949C13.9917 20.1704 17.4388 19.9441 19.7281 17.6503L16.8969 14.8247C15.9987 15.7246 14.6646 15.8233 13.6506 15.155L11.4494 18.4949ZM19.7267 17.6517L19.9892 17.3892L17.1608 14.5608L16.8983 14.8233L19.7267 17.6517ZM19.9877 17.3907C21.1558 16.2252 21.5778 14.6653 21.7718 13.5222L17.8282 12.8528C17.6753 13.7535 17.4317 14.2904 17.1623 14.5592L19.9877 17.3907ZM21.7718 13.5222C21.9769 12.3135 21.972 11.1428 21.975 10.4968L17.975 10.4781C17.9718 11.1697 17.9699 12.0177 17.8282 12.8528L21.7718 13.5222ZM21.9749 10.5079C21.9768 10.3257 22.012 9.50141 21.3811 8.75072L18.3189 11.3243C18.1507 11.1241 18.0492 10.8921 18.0035 10.6778C17.9679 10.5113 17.976 10.3838 17.9751 10.4671L21.9749 10.5079ZM21.3811 8.75072C20.9874 8.28226 20.5013 8.06652 20.1602 7.96916C19.8318 7.87545 19.4203 7.82856 18.9926 7.91189L19.7574 11.8381C19.45 11.898 19.2143 11.8589 19.0624 11.8156C18.8979 11.7686 18.5892 11.6458 18.3189 11.3243L21.3811 8.75072ZM18.9803 7.91432C18.5721 7.99648 18.2365 8.15649 17.9754 8.33776C17.8473 8.4267 17.741 8.51802 17.6544 8.60309C17.6112 8.64564 17.5727 8.68677 17.5387 8.72553C17.5217 8.74491 17.5057 8.76375 17.4909 8.78191C17.4834 8.79099 17.4763 8.79991 17.4693 8.80865C17.4659 8.81302 17.4625 8.81735 17.4592 8.82164C17.4575 8.82378 17.4558 8.82591 17.4542 8.82803C17.4534 8.82909 17.4526 8.83015 17.4518 8.8312C17.4514 8.83173 17.4508 8.83252 17.4506 8.83278C17.4499 8.83357 17.4493 8.83436 19.0375 10.05C20.6257 11.2656 20.6251 11.2664 20.6245 11.2672C20.6243 11.2675 20.6236 11.2682 20.6232 11.2688C20.6224 11.2698 20.6216 11.2709 20.6208 11.2719C20.6192 11.274 20.6176 11.2761 20.616 11.2782C20.6127 11.2823 20.6095 11.2865 20.6062 11.2906C20.5997 11.2989 20.5931 11.3071 20.5864 11.3152C20.5731 11.3315 20.5595 11.3476 20.5456 11.3634C20.5178 11.395 20.4888 11.4259 20.4584 11.4558C20.3975 11.5156 20.3304 11.5723 20.2566 11.6235C20.1041 11.7294 19.9372 11.8019 19.7697 11.8357L18.9803 7.91432ZM17.6233 8.63577L17.6108 8.64827L20.4392 11.4767L20.4517 11.4642L17.6233 8.63577ZM19.025 10.0625C17.6074 8.65165 17.6074 8.65166 17.6074 8.65168C17.6074 8.65169 17.6073 8.65172 17.6073 8.65176C17.6072 8.65183 17.6071 8.65193 17.607 8.65207C17.6067 8.65235 17.6063 8.65277 17.6058 8.65332C17.6047 8.65442 17.603 8.65608 17.6008 8.65825C17.5965 8.66261 17.5901 8.66909 17.5817 8.67754C17.5648 8.69445 17.5401 8.7193 17.5085 8.75103C17.4454 8.81449 17.3548 8.9055 17.2451 9.01569C17.0258 9.23608 16.7301 9.5332 16.4246 9.84014C15.8137 10.4539 15.1636 11.1072 15.0073 11.2643L17.8427 14.0857C17.9989 13.9287 18.6488 13.2757 19.2598 12.6618C19.5652 12.3549 19.8609 12.0577 20.0803 11.8374C20.1899 11.7272 20.2805 11.6362 20.3437 11.5727C20.3753 11.541 20.4 11.5161 20.4168 11.4992C20.4252 11.4908 20.4317 11.4843 20.436 11.4799C20.4382 11.4777 20.4398 11.4761 20.4409 11.475C20.4415 11.4744 20.4419 11.474 20.4422 11.4737C20.4423 11.4736 20.4424 11.4735 20.4425 11.4734C20.4425 11.4734 20.4425 11.4734 20.4426 11.4734C20.4426 11.4733 20.4426 11.4733 19.025 10.0625ZM15.365 10.979C15.3656 10.9786 15.3683 10.9769 15.3721 10.9746C15.3759 10.9722 15.3822 10.9684 15.39 10.9637C15.405 10.9546 15.4316 10.939 15.4655 10.9206C15.5417 10.8794 15.6391 10.8333 15.7555 10.793C15.8648 10.7552 15.9559 10.7346 16.0112 10.7236C16.0615 10.7136 16.0998 10.7083 16.1047 10.7076L16.6703 14.6674C16.6739 14.6669 16.856 14.645 17.064 14.573C17.1856 14.5309 17.2874 14.4828 17.3684 14.439C17.4047 14.4193 17.4337 14.4022 17.4514 14.3916C17.4684 14.3814 17.482 14.3729 17.485 14.371L15.365 10.979ZM16.0866 10.7103C16.0916 10.7095 16.089 10.71 16.08 10.7108C16.0711 10.7116 16.0575 10.7124 16.0403 10.7126L16.0847 14.7124C16.3301 14.7096 16.5364 14.6879 16.6884 14.6647L16.0866 10.7103ZM16.0402 10.7126C15.8488 10.7147 15.5363 10.7011 15.2083 10.6709L14.8417 14.6541C15.2605 14.6926 15.7168 14.7165 16.0848 14.7124L16.0402 10.7126ZM15.2083 10.6709C14.9089 10.6433 14.6037 10.5961 14.3797 10.5513L13.5953 14.4736C13.9494 14.5445 14.3942 14.6129 14.8417 14.6541L15.2083 10.6709ZM14.3878 10.553C14.3419 10.5436 14.3045 10.5349 14.2772 10.528C14.2478 10.5206 14.2392 10.5176 14.2484 10.5206L13.0266 14.3294C13.2005 14.3852 13.3975 14.4333 13.5872 14.472L14.3878 10.553ZM14.2397 10.5178C14.2399 10.5179 14.2419 10.5185 14.2453 10.5196C14.2486 10.5207 14.2542 10.5225 14.2613 10.5249C14.275 10.5296 14.2997 10.5382 14.3312 10.5505C14.3996 10.5774 14.4958 10.6201 14.604 10.685L12.546 14.115C12.7857 14.2588 13.0093 14.324 13.0353 14.3322L14.2397 10.5178ZM15.2391 11.2906C15.2645 11.3287 15.3024 11.3889 15.342 11.4662C15.3814 11.5432 15.4112 11.6149 15.4335 11.6773L11.6665 13.0226C11.7362 13.2178 11.8229 13.3774 11.9109 13.5094L15.2391 11.2906ZM15.4474 11.7175C15.4574 11.7476 15.4643 11.7715 15.4685 11.7868C15.4728 11.8024 15.4755 11.8135 15.4768 11.8187C15.4788 11.8275 15.4784 11.8266 15.4747 11.8081C15.471 11.7892 15.467 11.7678 15.46 11.7312C15.4538 11.6982 15.4455 11.6543 15.4362 11.6078L11.5138 12.3922C11.5186 12.4159 11.5234 12.4411 11.5297 12.4744C11.5353 12.5041 11.5433 12.5465 11.5514 12.5876C11.5597 12.6291 11.5711 12.6843 11.5853 12.7442C11.599 12.8016 11.6206 12.8864 11.6526 12.9824L15.4474 11.7175ZM15.4362 11.6078C15.3976 11.4149 15.3566 11.1254 15.3302 10.8172L11.3448 11.1578C11.3809 11.5808 11.4399 12.0225 11.5138 12.3922L15.4362 11.6078ZM15.3302 10.8172C15.3018 10.4842 15.2923 10.2089 15.2984 10.054L11.3016 9.89595C11.2858 10.2942 11.3107 10.7595 11.3448 11.1578L15.3302 10.8172ZM15.298 10.0648C15.2988 10.0465 15.2995 10.0309 15.3002 10.0152C15.3009 9.99992 15.3015 9.98646 15.3021 9.97419C15.3034 9.94888 15.3043 9.93319 15.305 9.92328C15.3053 9.91871 15.3054 9.91698 15.3054 9.91755C15.3054 9.91806 15.305 9.92215 15.3042 9.92913C15.3035 9.93602 15.3021 9.94759 15.2999 9.96291C15.2978 9.97807 15.2944 9.99962 15.2893 10.0261L11.3607 9.27385C11.3122 9.52706 11.3047 9.82653 11.302 9.88519L15.298 10.0648ZM15.2794 10.0748C15.2282 10.3101 15.1236 10.5561 14.95 10.7875L11.75 8.38747C11.5671 8.6314 11.4374 8.91797 11.3706 9.22513L15.2794 10.0748ZM14.7642 11.0017C14.9353 10.8306 15.589 10.18 16.2032 9.56898C16.5095 9.26418 16.8051 8.9702 17.024 8.75241C17.1335 8.64352 17.2238 8.55369 17.2868 8.49107C17.3183 8.45977 17.3429 8.43527 17.3597 8.4186C17.368 8.41026 17.3745 8.40388 17.3788 8.39959C17.3809 8.39744 17.3826 8.39581 17.3837 8.39473C17.3842 8.39418 17.3846 8.39377 17.3849 8.3935C17.385 8.39336 17.3851 8.39326 17.3852 8.39319C17.3853 8.39315 17.3853 8.39313 17.3853 8.39311C17.3853 8.39309 17.3853 8.39309 15.975 6.97499C14.5647 5.55689 14.5647 5.5569 14.5647 5.55692C14.5646 5.55693 14.5646 5.55696 14.5646 5.55699C14.5645 5.55706 14.5644 5.55717 14.5643 5.5573C14.564 5.55758 14.5636 5.55799 14.563 5.55854C14.5619 5.55963 14.5603 5.56126 14.5581 5.56341C14.5538 5.56771 14.5474 5.57409 14.539 5.58244C14.5222 5.59912 14.4976 5.62364 14.4661 5.65496C14.4031 5.7176 14.3127 5.80748 14.2032 5.91641C13.9842 6.13427 13.6885 6.42837 13.382 6.73334C12.7704 7.34182 12.1116 7.9975 11.9358 8.17327L14.7642 11.0017ZM17.3892 8.3892L17.4017 8.3767L14.5733 5.54827L14.5608 5.56077L17.3892 8.3892ZM17.9875 6.96249V6.94999H13.9875V6.96249H17.9875ZM15.9875 6.94999C17.1459 8.58035 17.1468 8.57975 17.1476 8.57916C17.1479 8.57896 17.1487 8.57836 17.1493 8.57796C17.1504 8.57716 17.1515 8.57635 17.1527 8.57554C17.1549 8.57392 17.1572 8.57229 17.1595 8.57064C17.164 8.56735 17.1686 8.564 17.1732 8.56058C17.1825 8.55376 17.192 8.54669 17.2016 8.53938C17.2207 8.52475 17.2405 8.50912 17.2609 8.49245C17.3015 8.45913 17.3443 8.42156 17.3884 8.37942C17.4767 8.29506 17.5703 8.19235 17.6615 8.06913C17.8474 7.81791 18.0097 7.50007 18.1043 7.1163L14.2207 6.15868C14.259 6.00303 14.3338 5.84144 14.4463 5.68943C14.5008 5.61582 14.5611 5.54847 14.6254 5.48706C14.6575 5.4564 14.6906 5.4272 14.7246 5.39938C14.7415 5.38546 14.7587 5.37187 14.7761 5.35859C14.7849 5.35195 14.7936 5.34539 14.8024 5.33889C14.8069 5.33565 14.8113 5.33242 14.8157 5.32921C14.8179 5.3276 14.8202 5.326 14.8224 5.3244C14.8235 5.3236 14.8246 5.32281 14.8257 5.32201C14.8263 5.32161 14.8271 5.32102 14.8274 5.32082C14.8282 5.32022 14.8291 5.31963 15.9875 6.94999ZM18.1043 7.1163C18.1905 6.76695 18.1976 6.39005 18.1283 6.03069C18.0565 5.65843 17.8714 5.15389 17.4281 4.72503L14.6469 7.59994C14.3474 7.31015 14.2388 6.98608 14.2006 6.78804C14.1649 6.6029 14.1626 6.39396 14.2207 6.15867L18.1043 7.1163ZM17.4281 4.72503C16.7525 4.07147 15.9843 3.99999 15.5875 3.99999V7.99999C15.5689 7.99999 15.4218 8.00048 15.2276 7.94075C15.0101 7.87388 14.8076 7.75536 14.6469 7.59994L17.4281 4.72503ZM13.6483 5.38577C13.1514 5.88265 11.6123 7.42171 11.3608 7.67327L14.1892 10.5017C14.4408 10.2501 15.9798 8.71108 16.4767 8.2142L13.6483 5.38577ZM11.3608 7.67327C11.0821 7.95198 10.883 8.26843 10.7574 8.61045C10.6619 8.8707 10.6133 9.17392 10.6255 9.11214L14.5495 9.88783C14.5552 9.85909 14.5613 9.82637 14.5625 9.81967C14.5651 9.80621 14.5646 9.80941 14.5628 9.81782C14.5587 9.83697 14.5441 9.90271 14.5125 9.98874C14.4792 10.0794 14.4329 10.1772 14.3706 10.2745C14.3093 10.3704 14.2452 10.4457 14.1892 10.5017L11.3608 7.67327ZM10.6255 9.11215C10.5759 9.36296 10.5486 9.61999 10.5389 9.87385L14.5361 10.0261C14.5389 9.95186 14.546 9.90576 14.5495 9.88783L10.6255 9.11215ZM10.5394 9.86394C10.5199 10.3154 10.5466 10.7956 10.582 11.2174L14.568 10.8826C14.5378 10.5231 14.527 10.2377 14.5356 10.036L10.5394 9.86394ZM10.582 11.2174C10.6195 11.6639 10.6802 12.132 10.7653 12.5495L14.6847 11.7504C14.6386 11.5242 14.5961 11.2173 14.568 10.8826L10.582 11.2174ZM10.7653 12.5495C10.8075 12.7564 10.8637 12.9908 10.9401 13.2199L14.7349 11.955C14.7269 11.9311 14.7081 11.8654 14.6847 11.7504L10.7653 12.5495ZM10.9401 13.2199C10.9732 13.319 11.1178 13.8587 11.6233 14.3642L14.4517 11.5358C14.49 11.5741 14.5365 11.6264 14.5843 11.6933C14.6329 11.7614 14.6725 11.83 14.7037 11.8943C14.7333 11.9553 14.7498 12.0014 14.754 12.0132C14.7558 12.0183 14.7559 12.019 14.7523 12.008C14.7512 12.0045 14.7412 11.974 14.7349 11.955L10.9401 13.2199ZM11.6233 14.3642C12.1337 14.8746 12.67 15.0152 12.7745 15.0497L14.0255 11.2503C14.0034 11.243 13.9752 11.234 13.9693 11.2321C13.9573 11.2282 13.9583 11.2284 13.9636 11.2303C13.9763 11.2347 14.0259 11.2522 14.0911 11.2837C14.1599 11.3169 14.2309 11.3583 14.2999 11.4078C14.367 11.456 14.4174 11.5015 14.4517 11.5358L11.6233 14.3642ZM12.7745 15.0497C12.9932 15.1217 13.2183 15.1783 13.4453 15.2236L14.2297 11.3013C14.1286 11.2811 14.0631 11.2627 14.0255 11.2503L12.7745 15.0497ZM13.4453 15.2236C13.879 15.3104 14.3653 15.3648 14.7736 15.4035L15.1514 11.4214C14.7691 11.3852 14.4522 11.3458 14.2297 11.3013L13.4453 15.2236ZM14.7736 15.4035C15.1799 15.4421 15.6497 15.4791 16.0819 15.4749L16.0431 11.4751C15.8316 11.4771 15.5357 11.4579 15.1514 11.4214L14.7736 15.4035ZM16.0819 15.4749C16.369 15.4721 16.618 15.4418 16.7931 15.4159L16.2069 11.4591C16.1288 11.4706 16.0779 11.4747 16.0431 11.4751L16.0819 15.4749ZM16.7931 15.4159C16.7264 15.4258 16.637 15.4312 16.7356 15.4241C16.7955 15.4198 16.9632 15.4077 17.1651 15.358C17.6457 15.2396 18.0282 14.9877 18.3267 14.6892L15.4983 11.8608C15.5472 11.8119 15.6358 11.7329 15.7672 11.6546C15.9066 11.5716 16.0573 11.5113 16.2087 11.474C16.279 11.4567 16.3385 11.4471 16.3812 11.4415C16.4023 11.4388 16.4193 11.437 16.4307 11.436C16.4419 11.4349 16.4493 11.4344 16.45 11.4343C16.4873 11.4317 16.3369 11.4398 16.2069 11.4591L16.7931 15.4159ZM18.3323 14.6836C18.5449 14.4693 20.0914 12.9027 20.606 12.3849L17.769 9.56512C17.268 10.0691 15.6739 11.6838 15.4927 11.8664L18.3323 14.6836ZM17.1877 10.9449C17.1777 11.6123 17.177 12.1444 17.0781 12.7285L21.0219 13.3965C21.1824 12.4493 21.1786 11.5845 21.1873 11.0051L17.1877 10.9449ZM17.0779 12.7295C16.9402 13.5447 16.7088 13.9378 16.6233 14.0233L19.4517 16.8517C20.4287 15.8747 20.841 14.4677 21.0221 13.3955L17.0779 12.7295ZM16.6233 14.0233L16.3608 14.2858L19.1892 17.1142L19.4517 16.8517L16.6233 14.0233ZM16.3601 14.2865C15.6132 15.0341 14.5038 15.0277 13.7539 14.2755L10.9211 17.0995C13.1994 19.3848 16.8461 19.4597 19.1899 17.1135L16.3601 14.2865ZM13.7517 14.2733L11.7517 12.2733L8.92329 15.1017L10.9233 17.1017L13.7517 14.2733ZM11.7554 12.2769C11.0019 11.5196 10.9968 10.3986 11.7435 9.6474L8.9065 6.82757C6.57506 9.17321 6.64811 12.8148 8.91965 15.0981L11.7554 12.2769ZM11.7717 9.61844L12.0342 9.34344L9.14079 6.58154L8.87829 6.85654L11.7717 9.61844ZM12.0028 9.37559C12.0757 9.30255 12.3708 9.11679 13.0706 8.97797C13.7148 8.85017 14.4424 8.81082 15.0965 8.7997L15.0285 4.80028C14.3045 4.81259 13.2922 4.85606 12.2923 5.05443C11.3479 5.24177 10.0946 5.62555 9.17218 6.54938L12.0028 9.37559ZM8.09485 15.317C8.14085 15.3696 8.10577 15.3306 8.18576 15.4229C8.23133 15.4755 8.30065 15.5541 8.38579 15.6392L11.2142 12.8108C11.2275 12.824 11.2296 12.8276 11.2095 12.8044C11.1991 12.7923 11.1888 12.7803 11.1701 12.7583C11.1536 12.739 11.1304 12.7118 11.1052 12.683L8.09485 15.317ZM8.38579 15.6392L10.3858 17.6392L13.2142 14.8108L11.2142 12.8108L8.38579 15.6392ZM10.3858 17.6392C10.4887 17.7421 10.5838 17.8197 10.6221 17.8509C10.6322 17.8591 10.643 17.8679 10.6484 17.8723C10.6552 17.8778 10.6585 17.8805 10.6606 17.8822C10.665 17.8858 10.6571 17.8795 10.6438 17.8676L13.3062 14.8824C13.2639 14.8447 13.2266 14.8135 13.2013 14.7927C13.1886 14.7823 13.1769 14.7728 13.1689 14.7663C13.1594 14.7586 13.1553 14.7553 13.1506 14.7514C13.1418 14.7443 13.1466 14.748 13.1564 14.7566C13.167 14.7658 13.1879 14.7844 13.2142 14.8108L10.3858 17.6392ZM10.5608 14.9608C10.5327 14.9889 10.5171 15.0045 10.4858 15.0358L13.3142 17.8642C13.3454 17.833 13.3611 17.8173 13.3892 17.7892L10.5608 14.9608ZM10.4906 15.031C10.2341 15.2858 9.90236 15.6312 9.52501 16.0358L12.45 18.7642C12.8101 18.3781 13.1034 18.0736 13.3094 17.869L10.4906 15.031ZM9.52501 16.0358C8.77367 16.8412 7.80366 17.9125 6.84874 18.977L9.82626 21.648C10.7776 20.5875 11.7263 19.54 12.45 18.7642L9.52501 16.0358ZM6.84955 18.9761C4.94077 21.1013 3.07235 23.2283 3.05735 23.2455L6.06765 25.8795C6.06684 25.8804 6.09494 25.8484 6.15155 25.7841C6.20688 25.7212 6.28757 25.6295 6.3901 25.5131C6.59517 25.2804 6.88748 24.9491 7.23875 24.5522C7.94159 23.758 8.8791 22.7026 9.82545 21.6489L6.84955 18.9761ZM3.14829 23.1483L3.13579 23.1608L5.96421 25.9892L5.97671 25.9767L3.14829 23.1483ZM3.14958 23.1471C3.17825 23.119 3.18774 23.1144 3.17147 23.1259C3.15754 23.1357 3.13354 23.1509 3.10183 23.1673C3.07038 23.1834 3.03851 23.197 3.00913 23.207C2.97962 23.217 2.95949 23.2212 2.95006 23.2226L3.54994 27.1774C4.55498 27.0249 5.43169 26.5116 5.95042 26.0029L3.14958 23.1471ZM2.95332 23.2221C2.92271 23.2267 2.91406 23.2254 2.92152 23.2258C2.93075 23.2262 2.94833 23.2284 2.96829 23.2346C2.98849 23.2409 2.99455 23.246 2.98431 23.2396C2.97276 23.2324 2.93595 23.2075 2.87671 23.1483L0.0482858 25.9767C1.15578 27.0842 2.41273 27.348 3.54668 27.1779L2.95332 23.2221ZM2.87671 23.1483C2.8172 23.0888 2.79036 23.05 2.78086 23.0349C2.77205 23.0208 2.77515 23.0225 2.78013 23.0382C2.78507 23.0539 2.78731 23.0689 2.78787 23.0785C2.78835 23.0867 2.78704 23.0815 2.79049 23.0584L-1.16549 22.4666C-1.33827 23.6216 -1.04571 24.8827 0.0482858 25.9767L2.87671 23.1483ZM2.78988 23.0624C2.79023 23.0602 2.79286 23.0453 2.80214 23.0187C2.81135 22.9923 2.82457 22.9618 2.84138 22.93C2.85826 22.8981 2.87489 22.8722 2.8871 22.8552C2.9008 22.836 2.90019 22.8402 2.87788 22.8629L0.0221226 20.0621C-0.464036 20.5578 -1.0081 21.4289 -1.16488 22.4625L2.78988 23.0624ZM2.86421 22.8767L2.87671 22.8642L0.0482858 20.0358L0.0357858 20.0483L2.86421 22.8767ZM2.81302 22.9251L10.9505 15.4751L8.24947 12.5248L0.111974 19.9748L2.81302 22.9251Z" fill="#007EF2" mask="url(#path-1-inside-1_15_374)"/>
</g>
</g>
<defs>
<clipPath id="clip0_15_374">
<rect width="32" height="32" fill="white"/>
</clipPath>
<clipPath id="clip1_15_374">
<rect width="20" height="20" fill="white" transform="translate(0 6)"/>
</clipPath>
</defs>
</svg>
