<svg width="32" height="32" viewBox="0 0 32 32" fill="none" xmlns="http://www.w3.org/2000/svg">
<g clip-path="url(#clip0_15_326)">
<path d="M23.5 21.3334V21.5405L23.6464 21.6869L26.1666 24.2071V24.8334H5.83331V24.2071L8.35353 21.6869L8.49998 21.5405V21.3334V14.6667C8.49998 10.7353 10.5781 7.56757 14.1156 6.72648L14.5 6.6351V6.24004V5.33337C14.5 4.50285 15.1695 3.83337 16 3.83337C16.8305 3.83337 17.5 4.50285 17.5 5.33337V6.24004V6.63542L17.8847 6.72657C21.4341 7.56753 23.5 10.7473 23.5 14.6667V21.3334ZM21.3333 23.1667H21.8333V22.6667V14.6667C21.8333 12.9153 21.3002 11.2951 20.2935 10.104C19.2801 8.90478 17.807 8.16671 16 8.16671C14.1929 8.16671 12.7199 8.90478 11.7064 10.104C10.6998 11.2951 10.1666 12.9153 10.1666 14.6667V22.6667V23.1667H10.6666H21.3333ZM18.1079 27.1667C17.8803 28.1188 17.0186 28.8334 16 28.8334C14.9814 28.8334 14.1197 28.1188 13.8921 27.1667H18.1079Z" fill="#90A0B7" stroke="#F4F5F7"/>
</g>
<defs>
<clipPath id="clip0_15_326">
<rect width="32" height="32" fill="white"/>
</clipPath>
</defs>
</svg>
